<?xml version="1.0" encoding="UTF-8" standalone="no"?>
<!DOCTYPE svg PUBLIC "-//W3C//DTD SVG 1.1//EN" "http://www.w3.org/Graphics/SVG/1.1/DTD/svg11.dtd">
<svg width="100%" height="100%" viewBox="0 0 1816 1704" version="1.1" xmlns="http://www.w3.org/2000/svg" xmlns:xlink="http://www.w3.org/1999/xlink" xml:space="preserve" xmlns:serif="http://www.serif.com/" style="fill-rule:evenodd;clip-rule:evenodd;stroke-miterlimit:10;">
    <g transform="matrix(0.64,0,0,0.64,0,0)">
        <g transform="matrix(4.16667,0,0,4.16667,1414.8,129)">
            <g id="Exagon">
                <path d="M0,577.843L-250.214,433.382L-250.214,144.461L-0.001,0L250.212,144.461L250.212,433.382L0,577.843Z" style="fill:rgb(36,170,225);fill-rule:nonzero;stroke:rgb(19,117,188);stroke-width:14px;"/>
            </g>
        </g>
        <g id="cup-copy-2" serif:id="cup copy 2" transform="matrix(4.16667,0,0,4.16667,0,0)">
            <g transform="matrix(-1,0,0,1,214.382,250.083)">
                <path d="M-244.339,-74.367L0,-74.367L-4.511,0L-239.826,0L-244.339,-74.367Z" style="fill:white;fill-rule:nonzero;"/>
            </g>
            <g transform="matrix(0.192744,-0.981249,-0.981249,-0.192744,387.405,187.334)">
                <path d="M-112.72,-73.923L-48.422,-73.923L-92.245,149.176L-151.765,124.855L-112.72,-73.923Z" style="fill:white;fill-rule:nonzero;"/>
            </g>
            <g transform="matrix(1,0,0,1,254.365,508.523)">
                <path d="M0,-101L19.838,0L145.289,0L165.127,-101L0,-101Z" style="fill:white;fill-rule:nonzero;"/>
            </g>
            <g transform="matrix(-0.178897,-0.983868,-0.983868,0.178897,389.063,345.73)">
                <path d="M-133.833,132.468L114.331,132.468L106.731,90.669L-137.611,111.693L-133.833,132.468Z" style="fill:rgb(36,170,225);fill-rule:nonzero;"/>
            </g>
            <g transform="matrix(-1,0,0,1,235.141,242.523)">
                <path d="M-41.684,-59L3.545,-59L-0.001,0L-45.229,0L-41.684,-59Z" style="fill:rgb(0,174,239);fill-rule:nonzero;"/>
            </g>
        </g>
        <g id="text" transform="matrix(4.16667,0,0,4.16667,0,0)">
            <g>
                <g transform="matrix(0.994407,0,0,1,0.996664,0)">
                    <text x="178.205px" y="399.664px" style="font-family:'MyriadPro-Regular', 'Myriad Pro', sans-serif;font-size:111px;fill:white;">TMB</text>
                </g>
                <g transform="matrix(0.994407,0,0,1,2.13427,0)">
                    <text x="381.63px" y="399.664px" style="font-family:'MyriadPro-It', 'Myriad Pro', sans-serif;font-style:italic;font-size:80px;fill:white;">le</text>
                </g>
                <g transform="matrix(0.994407,0,0,1,2.4378,0)">
                    <text x="435.883px" y="399.664px" style="font-family:'MyriadPro-Regular', 'Myriad Pro', sans-serif;font-size:111px;fill:white;">R</text>
                </g>
            </g>
        </g>
    </g>
</svg>
